<svg id="Layer_1" data-name="Layer 1" xmlns="http://www.w3.org/2000/svg" viewBox="0 0 159.82 43.82"><defs><style>.cls-1{fill:#7f3f98;}</style></defs><path class="cls-1" d="M124.19,17.37c-.55,5.54,6.73,10.78,16.25,11.73s11.25-4.27,11.63-9.81S152,10,142.43,9.07,124.74,11.84,124.19,17.37Z"/><path class="cls-1" d="M8.61,6.42c-1-.18-1-1.06.09-1C36.19,5.92,137.15,8,143.91,9.25c9.24,1.77-3.47,19.85-3.47,19.85Z"/><path class="cls-1" d="M8.6,5.44c-1,0-1.13.83-.11,1C35.4,11.3,135,29.15,141.93,29.21c9.41.08.5-20.14.5-20.14Z"/><path class="cls-1" d="M33.8,26.63c-.55,5.53-8.71,9.25-18.24,8.31S5.37,28.55,6.09,23,8,14,17.55,14.91,34.35,21.1,33.8,26.63Z"/><path class="cls-1" d="M149.28,38.57c1.05,0,1.15-.84.12-1C122.34,32.67,22.94,14.86,16.06,14.8c-9.4-.08-.5,20.14-.5,20.14Z"/><path class="cls-1" d="M149.49,37.61c1,.18.94,1-.09,1-27.34-.53-128.55-2.58-135.31-3.87C4.85,33,17.55,14.91,17.55,14.91Z"/></svg>